# xmcd CD database file
#
# Track frame offsets:
#	150
#	10631
#	20774
#	37783
#	57884
#	68893
#	82262
#	97701
#	115063
#	131559
#	147605
#	159132
#
# Disc length: 2445 seconds
#
# Revision: 1
# Processed by: cddbd v1.5.2PL0 Copyright (c) Steve Scherf et al.
# Submitted via: CDex 1.70beta2
#
DISCID=92098b0c
DTITLE=Dawn Sears - Dawn Sears
DYEAR=2002
DGENRE=Country
TTITLE0=A-11
TTITLE1=Unmitigated Gall (w/ Connie Smith)
TTITLE2=No Place to Fall
TTITLE3=Right Here in Heaven
TTITLE4=Barbeque on My Birthday
TTITLE5=Love in the Making
TTITLE6=The Lonely in Me
TTITLE7=Fit for a King
TTITLE8=Don't Take Your Hands off My Heart
TTITLE9=Talk to Me
TTITLE10=My Ears Should Burn (When Fools are Talked About)
TTITLE11=Sweet Memories (w/ John Hughey and Kenny Sears)
EXTD=YEAR: 2002
EXTT0=
EXTT1=
EXTT2=
EXTT3=
EXTT4=
EXTT5=
EXTT6=
EXTT7=
EXTT8=
EXTT9=
EXTT10=
EXTT11=
PLAYORDER=
